<?xml version="1.0" encoding="iso-8859-1"?>
<!-- Uploaded to: SVG Repo, www.svgrepo.com, Generator: SVG Repo Mixer Tools -->
<svg height="40px" width="40px" version="1.1" id="Layer_1" xmlns="http://www.w3.org/2000/svg" xmlns:xlink="http://www.w3.org/1999/xlink" 
	 viewBox="0 0 392.533 392.533" xml:space="preserve">
<path style="fill:#FFC10D;" d="M196.267,21.786c-76.347,0-140.865,32.905-140.865,71.952s64.517,71.952,140.865,71.952
	s140.865-32.905,140.865-71.952S272.614,21.786,196.267,21.786z"/>
<path style="fill:#FFFFFF;" d="M55.402,141.317v20.428c0,39.046,64.517,71.952,140.865,71.952s140.865-32.905,140.865-71.952
	v-20.428c-27.927,27.798-79.968,46.222-140.865,46.222C135.37,187.475,83.265,169.115,55.402,141.317z"/>
<path style="fill:#56ACE0;" d="M55.402,210.36v19.459c0,39.046,64.517,71.952,140.865,71.952s140.865-32.905,140.865-71.952V210.36
	c-27.927,27.798-79.968,46.222-140.865,46.222S83.265,238.158,55.402,210.36z"/>
<path style="fill:#FFFFFF;" d="M55.402,278.303v20.493c0,39.046,64.517,71.952,140.865,71.952s140.865-32.905,140.865-71.952
	v-20.493c-27.927,27.798-79.968,46.222-140.865,46.222S83.265,306.166,55.402,278.303z"/>
<g>
	<path style="fill:#194F82;" d="M196.267,0C104.986,0,33.616,41.18,33.616,93.737v205.059c0,52.558,71.499,93.737,162.651,93.737
		c91.281,0,162.65-41.18,162.65-93.737V93.737C358.917,41.18,287.547,0,196.267,0z M337.131,298.796
		c0,39.047-64.517,71.952-140.865,71.952S55.402,337.842,55.402,298.796v-20.493c27.927,27.798,79.968,46.222,140.865,46.222
		s113.002-18.36,140.865-46.222V298.796z M337.131,229.754c0,39.046-64.517,71.952-140.865,71.952s-140.865-32.97-140.865-71.952
		v-19.459c27.927,27.798,79.968,46.222,140.865,46.222s113.002-18.36,140.865-46.222V229.754z M337.131,161.745
		c0,39.046-64.517,71.952-140.865,71.952s-140.865-32.97-140.865-71.952v-20.428c27.927,27.798,79.968,46.222,140.865,46.222
		s113.002-18.295,140.865-46.222V161.745z M196.267,165.689c-76.347,0-140.865-32.905-140.865-71.952s64.517-71.952,140.865-71.952
		s140.865,32.905,140.865,71.952S272.614,165.689,196.267,165.689z"/>
	<path style="fill:#194F82;" d="M196.267,60.574c10.02,0,18.23,5.689,18.23,12.735c0,4.267,4.848,7.628,10.925,7.628
		c6.012,0,10.925-3.426,10.925-7.628c0-12.671-11.96-23.337-28.444-26.828v-7.628c0-4.331-5.042-7.887-11.184-7.887
		c-6.141,0-11.184,3.556-11.184,7.887v7.499c-16.743,3.297-29.156,14.158-29.156,26.958c0,15.451,17.907,28.057,40.016,28.057
		c0.129,0,0.129,0,0.065,0c9.374,0.517,18.166,5.947,18.166,12.671c0,7.046-8.21,12.735-18.23,12.735s-18.23-5.689-18.23-12.735
		c0-4.267-4.848-7.628-10.925-7.628c-6.012,0-10.925,3.426-10.925,7.628c0,12.8,12.347,23.661,29.156,26.958v7.434
		c0,4.331,5.042,7.887,11.184,7.887c6.206,0,11.184-3.556,11.184-7.887v-7.564c16.485-3.491,28.444-14.222,28.444-26.828
		c0-15.451-17.907-28.057-40.016-28.057c-0.129,0-0.129,0-0.065,0c-9.374-0.517-18.166-5.947-18.166-12.671
		C178.036,66.263,186.246,60.574,196.267,60.574z"/>
	<path style="fill:#194F82;" d="M111.515,82.812H97.164c-6.012,0-10.925,4.848-10.925,10.925c0,6.012,4.848,10.925,10.925,10.925
		h14.352c6.012,0,10.925-4.848,10.925-10.925C122.376,87.725,117.527,82.812,111.515,82.812z"/>
	<path style="fill:#194F82;" d="M295.434,82.812h-14.352c-6.012,0-10.925,4.848-10.925,10.925c0,6.012,4.848,10.925,10.925,10.925
		h14.352c6.012,0,10.925-4.848,10.925-10.925C306.295,87.725,301.446,82.812,295.434,82.812z"/>
</g>
</svg>